<svg width="33" height="43" fill="none" xmlns="http://www.w3.org/2000/svg"><g filter="url(#prefix__filter0_d)"><path d="M10.82.523a1 1 0 00-1.388.272l-5.02 7.47a1 1 0 001.66 1.116l4.463-6.64 6.64 4.462a1 1 0 101.115-1.66L10.82.523zm18.031 32.022c-6.373-4.641-10.033-8.862-12.468-13.678-2.453-4.85-3.699-10.365-5.14-17.707l-1.962.385c1.436 7.32 2.723 13.095 5.317 18.225 2.612 5.165 6.514 9.613 13.076 14.391l1.177-1.616z" fill="#F5F5F5"/></g><defs><filter id="prefix__filter0_d" x=".242" y=".353" width="32.609" height="41.809" filterUnits="userSpaceOnUse" color-interpolation-filters="sRGB"><feFlood flood-opacity="0" result="BackgroundImageFix"/><feColorMatrix in="SourceAlpha" values="0 0 0 0 0 0 0 0 0 0 0 0 0 0 0 0 0 0 127 0"/><feOffset dy="4"/><feGaussianBlur stdDeviation="2"/><feColorMatrix values="0 0 0 0 0 0 0 0 0 0 0 0 0 0 0 0 0 0 0.25 0"/><feBlend in2="BackgroundImageFix" result="effect1_dropShadow"/><feBlend in="SourceGraphic" in2="effect1_dropShadow" result="shape"/></filter></defs></svg>
