<svg xmlns="http://www.w3.org/2000/svg" width="84" height="75" fill="none"><path d="M13.63 2.223a1 1 0 00-1.407.147L6.558 9.364a1 1 0 101.554 1.258l5.036-6.216 6.216 5.036a1 1 0 101.258-1.554zm65.36 50.135C77.73 43.57 73.068 38.11 66.81 34.38c-6.193-3.691-13.987-5.712-21.554-7.685-7.64-1.992-15.047-3.935-20.777-7.418-5.657-3.439-9.643-8.356-10.484-16.38l-1.99.208c.917 8.738 5.33 14.17 11.435 17.88 6.03 3.666 13.747 5.673 21.312 7.646 7.639 1.991 15.133 3.95 21.033 7.467 5.833 3.477 10.066 8.454 11.225 16.545z" fill="#f5f5f5" filter="url(#prefix__filter0_d)"/><defs id="prefix__defs21"><filter id="prefix__filter0_d" x=".81" y=".369" width="82.33" height="85.6" filterUnits="userSpaceOnUse" color-interpolation-filters="sRGB"><feFlood flood-opacity="0" result="BackgroundImageFix" id="prefix__feFlood6"/><feColorMatrix in="SourceAlpha" type="matrix" values="0 0 0 0 0 0 0 0 0 0 0 0 0 0 0 0 0 0 127 0" id="prefix__feColorMatrix8"/><feOffset dy="4" id="prefix__feOffset10"/><feGaussianBlur stdDeviation="2" id="prefix__feGaussianBlur12"/><feColorMatrix type="matrix" values="0 0 0 0 0 0 0 0 0 0 0 0 0 0 0 0 0 0 0.25 0" id="prefix__feColorMatrix14"/><feBlend mode="normal" in2="BackgroundImageFix" result="effect1_dropShadow" id="prefix__feBlend16"/><feBlend mode="normal" in="SourceGraphic" in2="effect1_dropShadow" result="shape" id="prefix__feBlend18"/></filter></defs></svg>
