<svg width="51" height="42" fill="none" xmlns="http://www.w3.org/2000/svg"><g filter="url(#prefix__filter0_d)"><path d="M35.97 1.646a1 1 0 00-1.415 0L28.191 8.01a1 1 0 001.415 1.414l5.656-5.657 5.657 5.657a1 1 0 101.415-1.414l-6.365-6.364zM11.432 33.4c6.24-2.995 12.458-6.184 17.099-10.906 4.688-4.77 7.73-11.058 7.73-20.142h-2c0 8.563-2.839 14.348-7.156 18.74-4.365 4.44-10.278 7.5-16.539 10.506l.866 1.802z" fill="#F5F5F5"/></g><defs><filter id="prefix__filter0_d" x=".896" y=".017" width="49.733" height="41.482" filterUnits="userSpaceOnUse" color-interpolation-filters="sRGB"><feFlood flood-opacity="0" result="BackgroundImageFix"/><feColorMatrix in="SourceAlpha" values="0 0 0 0 0 0 0 0 0 0 0 0 0 0 0 0 0 0 127 0"/><feOffset dy="4"/><feGaussianBlur stdDeviation="2"/><feColorMatrix values="0 0 0 0 0 0 0 0 0 0 0 0 0 0 0 0 0 0 0.25 0"/><feBlend in2="BackgroundImageFix" result="effect1_dropShadow"/><feBlend in="SourceGraphic" in2="effect1_dropShadow" result="shape"/></filter></defs></svg>
